<svg width="48" height="44" viewBox="0 0 48 44" fill="none" xmlns="http://www.w3.org/2000/svg">
<path d="M40.0404 21.3265C40.0404 20.6587 39.9691 19.9988 39.8242 19.3468C39.8175 19.2727 39.8169 19.198 39.8029 19.125C39.3671 16.8257 38.469 14.7219 37.1189 12.8124C36.3613 11.7419 35.5009 10.7624 34.4849 9.92731C34.4181 9.86329 34.3546 9.79533 34.2838 9.73692C31.4718 7.41855 28.2487 6.16558 24.6043 6.0145C23.5861 5.97238 22.5701 6.01731 21.5654 6.21163C21.4817 6.21837 21.3969 6.21837 21.3149 6.23353C19.1695 6.63846 17.1539 7.38092 15.3325 8.59964C11.4321 11.2089 9.01878 14.8196 8.2269 19.4479C7.69336 22.5666 8.10334 25.592 9.42484 28.4877C12.4216 35.0542 19.616 39.3888 27.4085 37.5916C33.6559 36.1505 37.6755 32.181 39.5305 26.0452C39.9944 24.5109 40.1196 22.9266 40.0404 21.3265ZM38.3595 25.7083C36.6617 31.174 33.1443 34.9076 27.5562 36.2679C21.3289 37.7831 16.1778 35.7495 12.2341 30.7376C10.1903 28.1407 9.1575 25.1405 9.21816 21.8224C9.29398 17.6973 10.9041 14.213 13.8571 11.3622C15.8576 9.43084 18.2367 8.15933 20.9622 7.5584C20.9976 7.55053 21.0302 7.53144 21.0644 7.5174C21.0801 7.532 21.0964 7.54323 21.1133 7.55166C21.1284 7.53256 21.1447 7.51627 21.1621 7.50392C21.8327 7.41294 22.5005 7.29612 23.1778 7.25961C27.0299 7.05518 30.4311 8.21212 33.4156 10.6394C34.3776 11.4218 35.233 12.3159 35.9518 13.3133C37.4334 15.3711 38.4494 17.6367 38.7605 20.1847C38.8728 21.1013 38.8874 22.0184 38.8605 22.9384H38.8588C38.8588 22.9384 38.8537 22.9412 38.8509 22.9434C38.8537 22.9474 38.8565 22.9513 38.8599 22.9547C38.7583 23.8847 38.6381 24.8125 38.3595 25.7083Z" fill="white"/>
<path d="M36.4876 21.8247C32.4041 17.7731 28.3183 13.7239 24.2387 9.6684C24.0814 9.51227 24.0039 9.48531 23.8298 9.65942C20.8459 12.6411 17.8542 15.6148 14.8636 18.5903C13.7836 19.6647 12.7019 20.7379 11.6208 21.8118C11.4922 21.8932 11.3866 21.978 11.5747 22.1083C11.7404 22.2661 11.9061 22.4234 12.0718 22.5812C12.147 22.6632 12.2189 22.7485 12.2975 22.8272C16.1289 26.6383 19.9631 30.4478 23.7894 34.2651C23.9781 34.4533 24.0691 34.4909 24.2808 34.2786C26.4723 32.0804 28.6789 29.8968 30.8787 27.7065C31.7857 26.8034 32.6855 25.8936 33.5885 24.9866C34.5759 24.0178 35.5615 23.0473 36.5522 22.0825C36.6977 21.9404 36.5556 21.8926 36.4876 21.8247ZM24.6436 31.9821V29.4021C24.6425 28.4759 24.6425 27.5493 24.6414 26.6232V26.6024C24.6408 26.1233 24.6408 25.6448 24.6397 25.1663V25.1461C24.6391 24.6142 24.6386 24.0824 24.6374 23.5505V23.5449C24.6374 23.3309 24.6369 23.1175 24.6363 22.9035V22.8805C24.6363 22.7396 24.6425 22.6547 24.8464 22.6553C26.8418 22.6615 28.8372 22.6626 30.8321 22.6632H30.849C31.8402 22.6632 32.8315 22.6632 33.8227 22.6637C33.8576 22.6637 33.8924 22.6699 33.9901 22.6783C30.8894 25.8088 27.7994 28.8797 24.6436 31.9821ZM24.6459 12.0581C24.7705 12.0957 24.8363 12.1873 24.9115 12.2608C25.9342 13.2628 26.9552 14.2669 27.9774 15.2694C28.0437 15.3346 28.1156 15.3936 28.1846 15.4553C28.2178 15.4879 28.2509 15.5199 28.284 15.5519C28.4037 15.7025 28.5379 15.8389 28.6923 15.9541C28.7109 16.0035 28.7446 16.0377 28.7946 16.0551C28.8198 16.1119 28.8603 16.1529 28.9176 16.1765C29.3758 16.6415 29.8296 17.1104 30.2924 17.571C31.2915 18.5639 32.2951 19.5529 33.2965 20.5431C33.3184 20.5992 33.3572 20.6391 33.4133 20.661C33.4319 20.7138 33.4672 20.7497 33.52 20.7683C33.5419 20.825 33.5807 20.8643 33.6374 20.8862C33.6565 20.9384 33.6919 20.9738 33.7441 20.9929C33.8059 21.071 33.8677 21.1485 33.9283 21.2249C33.8688 21.2996 33.798 21.2675 33.7385 21.2675C30.8097 21.2681 27.8802 21.2642 24.9514 21.2704C24.72 21.2709 24.6358 21.2383 24.6369 20.9733C24.6414 19.4895 24.6419 18.0051 24.6408 16.5213V16.5056C24.6447 16.3017 24.6492 16.1001 24.6593 15.8962C24.6683 15.7058 24.6537 15.5132 24.6403 15.32V15.3048C24.6391 14.2742 24.6374 13.2442 24.6369 12.2137C24.6369 12.1687 24.6419 12.1232 24.6459 12.0581ZM23.3058 12.162C23.3407 12.2266 23.353 12.3007 23.3496 12.3895C23.348 12.4327 23.3452 12.4911 23.3592 12.536V13.16C23.3171 13.2285 23.3491 13.3268 23.3491 13.4009C23.3429 15.9462 23.344 18.4915 23.344 21.0367C23.344 21.0783 23.3463 21.1193 23.3513 21.1586C23.3339 21.2305 23.2834 21.2732 23.1379 21.2726C20.2108 21.2636 17.2836 21.2664 14.3559 21.2664H14.143C17.2005 18.196 20.2141 15.1852 23.3058 12.162ZM23.3603 31.78C23.3603 31.8047 23.3519 31.8288 23.339 31.9035C20.2254 28.8545 17.1769 25.7914 14.0902 22.6609H15.7167C18.1766 22.6609 20.637 22.662 23.0975 22.6592C23.2626 22.6592 23.3671 22.6525 23.3665 22.8833C23.3575 25.8487 23.3609 28.814 23.3603 31.78Z" fill="white"/>
<path d="M19.5801 31.5401C18.9724 31.5424 18.3641 31.5463 17.7565 31.5328C15.9042 31.4907 14.5743 30.1468 14.5513 28.2973C14.544 27.6897 14.5491 27.082 14.5468 26.4738C14.5468 26.3828 14.5648 26.2862 14.4873 26.2104C14.129 25.861 13.7723 25.5111 13.373 25.1203C13.4224 26.3036 13.3449 27.4257 13.4202 28.5473C13.5769 30.8729 15.3263 32.5937 17.6537 32.6662C18.7095 32.6988 19.7671 32.6757 20.824 32.6769C20.8656 32.6769 20.919 32.6926 20.9459 32.6241C20.6101 32.3068 20.2692 31.9894 19.9344 31.6654C19.8317 31.5654 19.7182 31.5396 19.5801 31.5401Z" fill="white"/>
<path d="M28.5154 12.4641C29.1051 12.4574 29.6943 12.4546 30.2834 12.4664C31.9671 12.499 33.3611 13.7615 33.5442 15.4368C33.6172 16.1068 33.5577 16.783 33.5678 17.4558C33.5689 17.5479 33.5369 17.6496 33.6003 17.7288C33.9328 18.1388 34.3203 18.4937 34.7185 18.852C34.7039 17.6159 34.8303 16.391 34.6455 15.1762C34.3473 13.2117 32.8214 11.6453 30.9433 11.3976C29.6898 11.232 28.4267 11.3729 27.1681 11.3201C27.491 11.6622 27.7977 11.9778 28.0931 12.303C28.2122 12.4338 28.3464 12.4664 28.5154 12.4641Z" fill="white"/>
<path d="M14.4002 17.8259C14.5131 17.7097 14.5485 17.5833 14.5457 17.4238C14.5361 16.8908 14.5356 16.3579 14.5395 15.8249C14.5547 13.9131 15.9492 12.5012 17.8626 12.4658C18.4422 12.4557 19.0218 12.4675 19.6014 12.467C19.6845 12.467 19.8002 12.4872 19.8457 12.4428C20.2108 12.0806 20.5629 11.706 20.9111 11.342C19.8086 11.342 18.6949 11.2949 17.5863 11.3521C15.3915 11.4661 13.6583 13.1577 13.4303 15.3458C13.3101 16.5022 13.409 17.6625 13.4253 18.8554C13.7499 18.5117 14.0711 18.1652 14.4002 17.8259Z" fill="white"/>
<path d="M34.7118 27.023C34.7213 26.403 34.714 25.783 34.714 25.0927C34.358 25.4595 34.0232 25.7498 33.7424 26.0947C33.5801 26.1924 33.5414 26.3395 33.5408 26.5226C33.5397 27.2803 33.6127 28.0435 33.5099 28.7944C33.2976 30.3461 32.0373 31.4649 30.4553 31.53C29.792 31.5576 29.127 31.5357 28.4626 31.5368C28.3615 31.5373 28.2599 31.5194 28.1751 31.6075C27.8353 31.9597 27.491 32.3079 27.1164 32.6903C28.3868 32.6589 29.619 32.7386 30.8495 32.6364C31.0163 32.6229 31.1831 32.5881 31.3466 32.5511C33.1825 32.1327 34.6343 30.4152 34.6562 28.6388C34.6669 28.613 34.6781 28.5883 34.6781 28.5591V28.5119C34.7539 28.0177 34.7045 27.5189 34.7118 27.023Z" fill="white"/>
</svg>
